<svg id="Capa_1" data-name="Capa 1" xmlns="http://www.w3.org/2000/svg" viewBox="0 0 288.328 1080"><defs><style>.cls-1{fill:#B2C1AA;}</style></defs><path class="cls-1" d="M42.818,643.036C66.294,625.516,76.937,601.358,89,578.3c7.5-14.338,13.22-29.664,21.392-43.574,5.26-8.954,12.937-16.771,20.618-23.93,6.217-5.794,14.5-8.136,20.643.454,6.115,8.549.853,15.657-4.83,22.13q-28.491,32.451-57,64.881c-.351.4-.044,1.38-.044,6.223,7.672-9.112,12.819-16.371,19.141-22.4a79.687,79.687,0,0,1,19.16-13.978c28.851-14.224,46.329-38.7,61.742-65.54,11.339-19.747,19.808-41.5,40.377-54.884,13.606-8.852,27.008-10.189,41.447-4.012,13.132,5.617,18.579,15.638,16.114,29.542-4.075,22.986-16.93,40.635-37.008,51.268-20.86,11.048-43.257,19.173-64.867,28.832-31.429,14.047-57.516,36.113-84.3,57.043a212.722,212.722,0,0,0-32.432,30.987c8.35-1.33,16.664-3.473,25.057-3.854,46.282-2.105,87.6,13.2,126.883,36.236,24.644,14.45,44.88,33.083,56.753,59.067,9.975,21.83,12.988,45.057,2.023,67.734-9.335,19.306-27.688,25.124-47.831,16.686-14.262-5.975-25.291-16.2-31.049-29.8-11.03-26.064-20.034-52.988-29.815-79.578-17.017-46.264-54.091-61.669-100.1-55.091-9.695,1.386-21.325,5.81-27.808,19.142,13-3.323,23.821-7.875,34.9-8.61,47.052-3.124,83.712,22.886,78.656,71.225-2.976,28.457-40.158,49.893-64.331,37.961-14.754-7.282-16.8-28.911-3.685-38.882,7.686-5.841,17.126-4.955,21.873,2.857,4.911,8.083,5.276,15.8-6.312,20.572,10.78,8.91,18.224,1.639,24.239-4.494,17.783-18.135,10.494-47.649-14.352-61.908-26.407-15.154-52.043-8.955-75.187,5.635-7.623,4.8-12.149,18.714-13.227,28.972-3.872,36.835,2.751,71.209,30.766,98.477.4.39.222,1.375.792,5.774-6.826-3.509-12.539-5.316-16.833-8.848-18.7-15.383-30.794-34.708-34.113-59.2-5.122-37.8,2.259-73.938,14.521-109.279,11.345-32.7,24.782-64.7,35.3-97.65C66.341,522.887,75.4,490.711,75.114,457c-.268-31.954-9.206-61.858-21.552-91.111-6.4-15.165-12.39-30.733-9.3-48.16,4.061-22.93,19.849-27.546,38.472-16.371,19.4,11.645,26.464,31.909,28.512,53.207,1.544,16.05.305,32.367,2.372,49.23,3.172-11.644,7.446-23.115,9.314-34.965,6.033-38.273,13.128-76.545,15.912-115.1,1.571-21.747-4.928-44.008-7.065-66.109-3.744-38.726-8.074-77.483,1.071-116.157,8.484-35.875,36.075-60.433,68.5-60.442a54.714,54.714,0,0,1,53.347,42.434c8.276,34.831,2.3,68.495-13.462,99.182-26.2,51.011-56.245,100.043-82.666,150.949-8.656,16.676-11.087,36.584-16.365,55.014l2.947,1.756c1.607-1.984,3.616-3.761,4.759-5.984,12.639-24.576,25.033-49.278,37.723-73.827,8.07-15.612,19.438-27.872,36.764-33.283,11.934-3.728,23.86-4.242,32.878,5.986,8.88,10.072,5.436,22.354.681,32.255-4.235,8.817-11.828,16.82-19.693,22.917-13.69,10.611-28.432,19.972-43.269,28.973-30.539,18.526-51.255,45.56-67.2,76.632-11.011,21.458-20.993,43.446-31.343,65.241-.948,2-1.225,4.312-1.814,6.479l3.589,2.073c10.363-15.938,21.356-31.507,30.925-47.908,11.062-18.964,21.33-38.379,40.305-50.852,4.831-3.176,10.386-6.05,15.977-7.095,10.024-1.873,20.644-.733,27.148,7.806,7.015,9.209,4.427,34.11-4.858,41.892-11.968,10.03-24.738,20.035-38.808,26.432-30.727,13.97-57.218,32.175-74.932,61.522a110.475,110.475,0,0,0-7.583,14.6q-21.548,51.932-42.781,104C43.219,639.182,43.249,640.325,42.818,643.036ZM159.671,178.372c-1.577-4.284-2.571-6-2.818-7.807-4.117-30.174-4.771-60.3,4.838-89.593,2.874-8.76,8.053-17.018,13.4-24.652,7.606-10.869,19.14-12.762,30.79-8.516,11.583,4.221,14.725,15.374,15.258,26.216,1.7,34.551-5.862,67.788-18.3,99.63-10.849,27.781-24.031,54.651-36.182,81.924l2.963,1.413q6.507-13.7,13.012-27.391c15.741-33.171,31.765-66.212,47.106-99.567,8.679-18.868,9.47-39.255,8.244-59.6-1.209-20.055-12.113-33.295-30.211-38.085-18.312-4.846-31.874.935-44.331,17.341-11.606,15.286-12.9,33.483-13.165,50.893-.581,38.914,1.362,77.864,2.16,116.8.221,10.828.033,21.664.033,32.5,3.55-.7,4.33-1.813,4.823-3.038,12.528-31.09,25.9-61.876,37.259-93.391,9.631-26.731,19.429-54.011,12.165-83.318-.848-3.424-4.381-7.378-7.656-8.782-10.207-4.373-17.227,2.092-20.754,10.135-5.174,11.8-9.89,24.282-11.813,36.928C163.107,130.657,161.986,153.248,159.671,178.372Zm27.382,498.622c8.258,9.227,15.726,19.346,24.936,27.5,19.387,17.153,31.87,38.113,37.057,63.161.8,3.84-3.285,9.642-6.647,13-1.716,1.712-7.871,1.354-10.213-.435-5.063-3.867-10.406-8.572-13.064-14.157-7.735-16.254-14.156-33.131-21.205-49.716-1.732-4.077-3.893-7.971-5.856-11.95,1.533,11.551,3.927,22.717,8.065,33.193a506.836,506.836,0,0,0,21.234,47.437c4.495,8.653,25.638,17.671,31.871,14.359,10.87-5.777,13.576-17.025,12.1-27.7-1.984-14.3-4.592-29.2-10.611-42.125C241.444,701.047,212.1,691.32,187.053,676.994ZM92.3,431.611c1.913-31.378,10.484-71.385-21.668-104.087C78.408,364.89,86.081,401.75,92.3,431.611Zm130.846,62.944,2.648,4.844c9.39-5.788,18.894-11.4,28.066-17.52,1.673-1.115,1.99-4.265,2.933-6.476-2.745-.325-6.41-1.945-8.082-.758C239.909,480.891,231.613,487.846,223.143,494.555Z"/><path class="cls-1" d="M126.567,817.59c19.354,22.137,46.689,32.58,69.994,48.769,19,13.2,38.113,26.657,49.288,47.282,7.191,13.272,11.75,28.3,15.439,43.049,3.679,14.711-1.876,28.312-14.366,36.488-13.778,9.019-29.445,8.528-43.99.622-30.98-16.839-44.932-45.677-53.1-78.067-7.965-31.569-9.519-64.725-23.467-94.831C125.949,820.009,126.48,818.677,126.567,817.59ZM149.343,853.7l-1.6.371c3.867,12.708,7.518,25.486,11.645,38.108,8.434,25.792,18.678,50.978,37.788,70.71,6.993,7.22,17.589,13.5,27.316,14.93,15.342,2.255,25.037-17.957,19.258-36.54-9.586-30.824-36.026-45.157-59.41-62.5,14.3,18.364,29.421,35.963,43.824,54.136,7.654,9.657,6.679,20.441-1.385,26.424-10.053,7.458-18.141,1.208-23.381-6.092-12.213-17.01-24-34.5-34.057-52.833C161.232,885.634,155.9,869.327,149.343,853.7Z"/><path class="cls-1" d="M98.488,796.032c1.246,1.095,3,2.037,3.884,3.5,14.494,24.116,29.3,48.242,30.29,77.514.616,18.118,1.049,36.332-.119,54.394-.913,14.11-8.455,25.462-21.133,32.624C98.932,971.118,83.026,968.8,76,959.134c-6.146-8.455-2.89-25.761,7.986-34.3,28.4-22.3,33.122-50.978,24.659-83.969C104.859,826.108,101.885,811.144,98.488,796.032Z"/><path class="cls-1" d="M114.782,622.42c30.74-15.14,62.005-19.662,93.893-12.533,16.025,3.582,32.28,11.7,36.237,30.179,1.307,6.1-3.722,14.345-7.789,20.282-1.058,1.544-10.775-.334-14.186-3.311C192.178,630.187,154.564,625.355,114.782,622.42Z"/><path class="cls-1" d="M73.858,790.894c15.519,9.991,22.776,25.073,26.519,42.209.575,2.63.2,5.614,1.277,7.965,10.127,22.03,2.341,42.221-7.682,61.267-3.682,7-12.677,11.2-19.144,16.587-10.071-9.968-5.065-17.717-2.7-25.455C74.6,885.4,82.971,878.346,76,868.5c-.912-1.289,1.3-5.181,2.593-7.581,11.7-21.687,7.456-42.656-2.548-63.452A52.7,52.7,0,0,1,73.858,790.894Z"/><path class="cls-1" d="M29.351,499.291c-14.408-.623-23.589-11.248-23.132-26.773C6.7,456.07,17.97,444.045,31.972,445.032s24.877,14.683,23.817,29.977C54.742,490.118,44.063,499.926,29.351,499.291Z"/><path class="cls-1" d="M56.963,216.807c-14.314.164-22.553-7.169-22.677-20.182-.107-11.221,12.949-24.885,24.282-25.412,9.667-.449,19.773,10.2,20.229,21.309C79.2,202.438,66.381,216.7,56.963,216.807Z"/><path class="cls-1" d="M180.281,579.41c16.146-7.7,32.278-15.439,48.465-23.055a6.927,6.927,0,0,1,4.649-.62c7.031,2.419,13.953,5.156,20.913,7.782-3.881,4.52-6.908,10.58-11.792,13.29-19.4,10.763-40.048,11.8-61.028,5.982Q180.885,581.1,180.281,579.41Z"/><path class="cls-1" d="M165.071,1071.461c-9.869.422-21.984-11.1-22.086-21-.089-8.591,8.5-17.484,17.488-18.116,11.033-.775,21.752,8.1,22.331,18.489C183.29,1059.564,173.367,1071.106,165.071,1071.461Z"/><path class="cls-1" d="M185.075,812.111c.393,12.151-7.862,18-17.279,15.2-11.388-3.383-17.987-11.006-20.358-22.207-1.647-7.779,1.283-13.007,10.082-10.245a117.947,117.947,0,0,1,22.486,9.808C182.867,806.278,184.158,810.679,185.075,812.111Z"/><path class="cls-1" d="M124.777,269.411c-.649,6.393-5.178,10.59-13.886,10.156-6.7-.334-18.1-13.121-15.517-20.276,2.3-6.362,8.344-13.534,14.432-15.814C117.4,240.632,125.121,253.774,124.777,269.411Z"/></svg>
