<svg id="Capa_1" data-name="Capa 1" xmlns="http://www.w3.org/2000/svg" viewBox="0 0 408.47 1080"><defs><style>.cls-1{fill:#D4E0D8;}.cls-2{fill:#96ADBB;}.cls-3{fill:#7A9BAB;}.cls-4{fill:none;}.cls-5{fill:#4A7A8A;}</style></defs><path class="cls-1" d="M353.745,508.9a3.878,3.878,0,1,0-3.878-3.878,3.923,3.923,0,0,0,3.878,3.878Z"/><path class="cls-2" d="M15.6,534.852,159.965,433.931c24.669-17.245,49.927-35.074,69.438-62.162s32.334-65.865,25.37-98.667a78.631,78.631,0,0,0-36.336-51.143c-18.314-11.156-40.675-14.739-61.033-3.587-24.189,13.251-41.22,44.253-54.376,74.755A675.225,675.225,0,0,0,66.617,402.805c-10.9,45.47-19.651,97.158-49.32,126.119"/><path class="cls-2" d="M36.464,572.644Q64.631,656.091,92.8,739.535c9.626,28.518,19.646,57.767,40.167,84.1s54.137,49.526,87.576,52.05a78.62,78.62,0,0,0,59.287-20.515c15.849-14.446,25.566-34.9,20.579-57.571-5.927-26.936-30.9-51.987-56.483-73.177a675.031,675.031,0,0,0-95.045-65.738c-40.579-23.231-87.732-46.139-107.2-82.746"/><path class="cls-2" d="M20.4,544.451l165.255,60.962c28.239,10.417,57.293,20.986,90.672,21.551s72.539-11.031,95.5-35.469a78.627,78.627,0,0,0,21.264-59.023c-1.29-21.4-11.107-41.813-31.881-52.167-24.685-12.3-59.863-8.6-92.419-2a675.164,675.164,0,0,0-110.846,32.686c-43.561,16.992-91,39.3-131.713,31.466"/><path class="cls-2" d="M150.794,163.948c14.832.154,26.985-12.208,27.145-27.61s-11.735-28.013-26.567-28.167-26.985,12.208-27.145,27.61S135.962,163.794,150.794,163.948Z"/><path class="cls-2" d="M314.04,388.723c14.831.153,26.985-12.208,27.144-27.61S329.45,333.1,314.618,332.946s-26.985,12.207-27.145,27.61S299.208,388.569,314.04,388.723Z"/><path class="cls-2" d="M334.258,738.335c14.832.154,26.984-12.207,27.144-27.61s-11.735-28.013-26.566-28.167-26.985,12.208-27.145,27.61S319.426,738.182,334.258,738.335Z"/><path class="cls-2" d="M151.825,960.981c14.832.153,26.985-12.208,27.144-27.61S167.235,905.357,152.4,905.2s-26.985,12.207-27.144,27.61S136.993,960.827,151.825,960.981Z"/><path class="cls-2" d="M-14.868,11.652A42.272,42.272,0,0,1,9.705,6.846C35.991,9.978,61.119,40.008,71.721,80.964c5.79,22.368,7.412,46.964,7.112,70.954C77.247,278.313,25.727,383.893,8.628,506"/><path class="cls-2" d="M-11.56,1065.711a41.789,41.789,0,0,0,22.933,4c26.287-3.132,51.414-33.162,62.016-74.118,5.79-22.368,7.413-46.964,7.112-70.953C78.915,798.241,27.4,692.661,10.3,570.556"/><path class="cls-3" d="M151.1,107.184h.3c16.441.173,29.673,14.149,29.493,31.156-.173,16.838-13.548,30.536-29.828,30.536a29.282,29.282,0,0,1-21.328-9.3,31.2,31.2,0,0,1-8.466-21.862C121.445,120.882,134.821,107.184,151.1,107.184Zm-.277,55.779c13.295,0,24.019-11.074,24.158-24.683.144-13.748-10.459-25.044-23.638-25.182l-.243-2.957V113.1c-13.051,0-23.776,11.07-23.915,24.682a25.305,25.305,0,0,0,6.856,17.744A23.259,23.259,0,0,0,150.823,162.963Z"/><path class="cls-3" d="M316.315,329.987h0l.306,0c16.435.17,29.667,14.143,29.494,31.151-.18,16.841-13.561,30.539-29.835,30.539-16.736-.17-29.967-14.146-29.794-31.154C286.665,343.689,300.046,329.987,316.315,329.987Zm-.278,55.779c13.289,0,24.019-11.074,24.164-24.685.138-13.745-10.465-25.041-23.638-25.177l-.248-2.96V335.9c-13.046,0-23.77,11.074-23.915,24.686C292.261,374.335,302.865,385.63,316.037,385.766Z"/><path class="cls-3" d="M333.86,679.835h.3a29.122,29.122,0,0,1,21.027,9.295,31.2,31.2,0,0,1,8.466,21.862c-.173,16.837-13.548,30.536-29.822,30.536a29.3,29.3,0,0,1-21.334-9.3,31.2,31.2,0,0,1-8.466-21.861C304.21,693.533,317.591,679.835,333.86,679.835Zm-.278,55.776c13.3,0,24.019-11.071,24.158-24.68a25.3,25.3,0,0,0-6.855-17.744,23.263,23.263,0,0,0-16.783-7.439l-.242-2.957v2.957c-13.047,0-23.771,11.071-23.916,24.686a25.307,25.307,0,0,0,6.856,17.742A23.261,23.261,0,0,0,333.582,735.611Z"/><path class="cls-3" d="M154.1,900.276h.3a29.12,29.12,0,0,1,21.027,9.293A31.193,31.193,0,0,1,183.9,931.43c-.179,16.837-13.56,30.536-29.828,30.536a29.279,29.279,0,0,1-21.328-9.292,31.2,31.2,0,0,1-8.466-21.865C124.449,913.975,137.824,900.276,154.1,900.276Zm-.277,55.776c13.289,0,24.013-11.073,24.158-24.685a25.3,25.3,0,0,0-6.856-17.742,23.257,23.257,0,0,0-16.782-7.435l-.243-2.957v2.957c-13.051,0-23.776,11.071-23.914,24.68a25.3,25.3,0,0,0,6.855,17.747A23.253,23.253,0,0,0,153.826,956.052Z"/><path class="cls-3" d="M12.23,536.518c30.625-18.008,60.608-36.936,90.627-55.814l44.731-28.739c14.851-9.615,29.788-19.188,44.473-30.107,14.619-10.874,28.7-23.416,40.27-38.387a162.775,162.775,0,0,0,26.682-50.247c5.839-18.2,8.385-38.072,4.978-58.141a89.98,89.98,0,0,0-55.538-68.722,75.183,75.183,0,0,0-31.168-5.39A66.869,66.869,0,0,0,146.52,210.3a89.131,89.131,0,0,0-23,19.875c-12.539,15.088-21.167,31.693-28.7,48.3a520.556,520.556,0,0,0-19.3,50.531C69.939,346.1,64.844,363.33,60.767,380.8c-4.128,17.478-7.272,35.105-10.6,52.383-3.189,17.346-6.766,34.51-12.063,51.139a151.561,151.561,0,0,1-9.733,24.264,102.944,102.944,0,0,1-14.449,22c13.53-11.605,23.5-27.316,30.73-43.745,7.463-16.437,12.608-33.715,17.608-50.8,4.813-17.191,9.156-34.2,14.5-50.857,5.3-16.684,10.916-33.242,17.338-49.477,6.422-16.175,13.385-32.35,20.805-47.831,7.545-15.358,16.107-30.144,26.7-41.98,10.578-11.9,22.993-19.886,36.81-20.225,13.738-.556,28.358,5.79,39.526,15.717a65.543,65.543,0,0,1,21.74,38.091c2.828,14.906.9,31.19-3.525,46.76A139.848,139.848,0,0,1,214.711,370.1c-9.78,13.349-21.707,25.288-34.861,36.331-13.1,11.063-27.641,21.2-41.722,32L95.774,470.573C67.734,492.281,39.661,513.94,12.23,536.518Z"/><path class="cls-3" d="M151.083,254.509c-3.6,4.4-7.369,8.735-10.769,13.342-3.043,4.832-6.375,9.537-9.208,14.521-2.579,5.112-5.41,10.132-7.742,15.369-2.214,5.281-4.661,10.492-6.686,15.852C108.4,335,102.625,357.191,96.6,379.167c-5.639,22.087-11.451,44.085-18.907,65.5-1.784,5.384-4.016,10.587-6,15.9-2.086,5.27-4.733,10.278-7.056,15.455-2.476,5.094-5.48,9.906-8.209,14.9-3.114,4.732-6.525,9.284-9.739,14.02,3.629-4.377,7.432-8.684,10.854-13.273,3.068-4.818,6.437-9.5,9.282-14.476,2.592-5.106,5.464-10.107,7.8-15.343,2.227-5.277,4.706-10.475,6.729-15.836,8.308-21.4,14.123-43.579,20.142-65.56,5.622-22.094,11.436-44.091,18.834-65.531,1.788-5.382,3.989-10.6,5.967-15.918,2.083-5.27,4.7-10.3,7-15.482,2.467-5.1,5.435-9.934,8.141-14.939C144.521,263.841,147.9,259.262,151.083,254.509Z"/><path class="cls-3" d="M123.494,268.14a158.446,158.446,0,0,0-16.7,28.933A272.11,272.11,0,0,0,95.337,328.55c-6.419,21.411-10.493,43.356-15.075,65.063-4.182,21.761-9.153,43.349-16.175,64.267a205.51,205.51,0,0,1-12.756,30.472A131.039,131.039,0,0,1,32.849,515.8c8.184-7.562,14.869-16.677,20.651-26.244A205.248,205.248,0,0,0,67.753,459.19c7.9-20.965,12.88-42.817,17.466-64.581,4.177-21.837,8.3-43.616,13.851-65.015a276.989,276.989,0,0,1,10.006-31.572A180.685,180.685,0,0,1,123.494,268.14Z"/><path class="cls-3" d="M222.232,270.222c6.908,7.9,8.024,18.788,7.348,28.742a94.67,94.67,0,0,1-6.905,29.452c-7.507,18.881-18.82,36.173-34.264,49.368-7.5,6.848-15.64,13.175-23.459,19.971-7.791,6.8-15.529,13.667-22.78,21.038q-10.941,10.984-21.268,22.525c-6.732,7.828-13.386,15.712-19.579,23.958,14.059-15.074,28.431-29.778,43.539-43.669,7.619-6.872,15.193-13.783,23.072-20.342,7.817-6.6,16.059-12.781,23.861-19.727A124.771,124.771,0,0,0,226.3,329.781a96.706,96.706,0,0,0,5.743-30.734,56.693,56.693,0,0,0-2-15.531A27.822,27.822,0,0,0,222.232,270.222Z"/><path class="cls-4" d="M50.048,1038.867c15.274-14.68,24.139-43.631,26.246-72.873s-1.737-58.9-7.035-87.144C52.518,789.614,21.162,708.188,9.894,616.7"/><path class="cls-5" d="M7.11,513.527C7.478,482.343.455,451.854-7,422.732q-2.077-8.114-4.2-16.2"/><path class="cls-3" d="M-11.258,17.712a38.788,38.788,0,0,1,13.85-1.6C27.743,17.836,52.006,45.2,62.477,83.646c5.719,21,7.471,44.311,7.381,67.14C69.384,271.065,21.011,373.923,5.673,490.859"/><path class="cls-3" d="M6.12,492.375C6.215,462.7-.749,434.039-8.113,406.7q-2.349-8.721-4.761-17.4"/><path class="cls-4" d="M14.043,55.559C3.834,62.306-5.042,74.022-11.656,88.531c-12.453,27.319-16.58,63.345-15.527,98.029s6.869,68.614,12.646,102.182Q-.068,372.82,14.4,456.9"/><path class="cls-3" d="M23.02,542.632c32.264,14.874,64.917,28.7,97.55,42.574L169.7,605.539c16.37,6.711,32.755,13.513,50.1,19.342,17.272,5.8,35.608,10.21,54.5,11.165a162.771,162.771,0,0,0,56.489-6.761c18.281-5.592,36.051-14.84,50.587-29.089a89.982,89.982,0,0,0,24.743-84.823A75.186,75.186,0,0,0,392.76,486.7a66.878,66.878,0,0,0-25.22-19.94,89.134,89.134,0,0,0-29.448-7.549c-19.545-1.688-38.1.7-56.042,4A520.975,520.975,0,0,0,229.541,476.2c-17.216,5.164-34.274,10.813-50.948,17.434-16.709,6.584-32.978,14.061-49.064,21.189-16.065,7.279-32.2,14.136-48.88,19.275a151.439,151.439,0,0,1-25.48,5.853,102.869,102.869,0,0,1-26.314.691c17.251,4.488,35.841,3.71,53.459.272,17.757-3.25,34.883-8.885,51.764-14.526,16.864-5.858,33.309-12,50.04-17.112,16.725-5.169,33.527-10,50.525-14,16.946-3.956,34.2-7.468,51.15-10.208,16.918-2.568,33.946-3.975,49.708-2.032,15.813,1.893,29.452,7.535,37.614,18.687,8.3,10.965,11.427,26.592,9.649,41.429a65.552,65.552,0,0,1-18.875,39.588c-10.628,10.828-25.1,18.538-40.412,23.788a139.825,139.825,0,0,1-48.25,7.414c-16.543-.414-33.152-3.395-49.728-7.9-16.563-4.448-33.182-10.6-50.088-16l-50.563-16.441C91.021,562.969,57.215,552.274,23.02,542.632Z"/><path class="cls-3" d="M333.842,495.735c-5.668-.445-11.378-1.066-17.1-1.23-5.7.258-11.47.207-17.18.724-5.669.8-11.407,1.34-17.038,2.412-5.6,1.2-11.276,2.161-16.833,3.555-22.306,5.424-43.823,13.338-65.31,20.928-21.356,7.974-42.737,15.753-64.58,21.852-5.44,1.607-10.986,2.744-16.485,4.142-5.518,1.294-11.14,1.979-16.718,3.025-5.6.873-11.262,1.152-16.92,1.761-5.663.143-11.348-.06-17.07,0,5.665.481,11.371,1.147,17.093,1.339,5.706-.23,11.472-.135,17.184-.639,5.673-.784,11.418-1.28,17.049-2.352,5.6-1.182,11.287-2.112,16.844-3.51,22.315-5.389,43.847-13.27,65.332-20.871,21.352-7.99,42.733-15.768,64.561-21.927,5.441-1.6,10.981-2.772,16.477-4.183,5.518-1.3,11.137-2.015,16.71-3.085,5.594-.884,11.259-1.206,16.913-1.84C322.434,495.672,328.12,495.831,333.842,495.735Z"/><path class="cls-3" d="M306.9,480.857a158.387,158.387,0,0,0-33.287,2.8,272.189,272.189,0,0,0-32.39,8.549c-21.245,6.948-41.592,16.124-62.032,24.748-20.256,8.983-40.821,17.22-62.006,23.389a205.423,205.423,0,0,1-32.3,6.914,131.092,131.092,0,0,1-33.088.486c10.88,2.406,22.18,2.693,33.336,1.982a205.038,205.038,0,0,0,33.07-5.624c21.723-5.479,42.512-13.855,63-22.508,20.315-9.031,40.552-18.073,61.294-25.725a276.618,276.618,0,0,1,31.636-9.8A180.775,180.775,0,0,1,306.9,480.857Z"/><path class="cls-3" d="M361.538,563.13c-2.541,10.177-10.85,17.31-19.409,22.434A94.683,94.683,0,0,1,314,596.7c-19.788,4.609-40.444,5.187-60.092.032-9.9-2.246-19.745-5.325-29.787-7.868-10.029-2.519-20.085-4.954-30.276-6.7-10.175-1.811-20.387-3.377-30.634-4.611-10.269-1.062-20.541-2.028-30.846-2.407,20.4,2.942,40.677,6.355,60.7,10.834,9.992,2.336,19.989,4.612,29.871,7.339,9.882,2.652,19.66,5.895,29.816,8.338a124.788,124.788,0,0,0,62.193-1.2,96.758,96.758,0,0,0,28.517-12.824,56.734,56.734,0,0,0,11.611-10.506A27.821,27.821,0,0,0,361.538,563.13Z"/><path class="cls-3" d="M27.928,570.911c8.685,34.45,18.435,68.541,28.126,102.653l15.025,51c5.058,16.954,10.053,33.976,16.409,51.136,6.333,17.085,14.416,34.123,25.538,49.428a162.764,162.764,0,0,0,40.735,39.716c15.831,10.715,34.187,18.737,54.4,21.1a89.984,89.984,0,0,0,81.551-34.01,75.185,75.185,0,0,0,13.924-28.4,66.891,66.891,0,0,0-.319-32.148A89.115,89.115,0,0,0,290.7,763.728c-10.96-16.271-24.476-29.214-38.3-41.1a520.9,520.9,0,0,0-43.081-32.709c-14.83-10.156-29.938-19.883-45.561-28.7-15.617-8.87-31.652-16.836-47.3-24.879-15.754-7.931-31.223-16.183-45.7-25.935A151.527,151.527,0,0,1,50.2,594.247,102.9,102.9,0,0,1,33.142,574.2c7.34,16.243,19.619,30.223,33.357,41.775,13.682,11.778,28.82,21.567,43.813,31.162,15.148,9.446,30.253,18.389,44.739,28.2,14.526,9.77,28.84,19.809,42.62,30.531,13.721,10.7,27.291,21.929,40.066,33.4,12.622,11.554,24.41,23.922,32.8,37.409,8.457,13.5,12.631,27.652,9.078,41.008-3.324,13.342-13.519,25.592-26.183,33.524a65.544,65.544,0,0,1-42.662,10.171c-15.1-1.471-30.188-7.892-43.89-16.511a139.835,139.835,0,0,1-36.069-32.895c-10.066-13.134-18.177-27.933-25.082-43.659-6.94-15.683-12.587-32.481-19-49.028L67.766,669.61C54.8,636.6,41.9,603.578,27.928,570.911Z"/><path class="cls-3" d="M259.612,783.355c-3.214-4.692-6.316-9.525-9.782-14.081-3.784-4.278-7.364-8.8-11.353-12.916-4.181-3.91-8.206-8.036-12.576-11.745-4.448-3.607-8.762-7.418-13.338-10.867-18.227-13.954-37.9-25.729-57.3-37.685-19.616-11.613-39.1-23.367-57.56-36.536C93.038,656.3,88.67,652.7,84.129,649.3c-4.473-3.481-8.536-7.427-12.853-11.111-4.193-3.806-7.969-8.04-12-12.062-3.667-4.317-7.079-8.869-10.722-13.282,3.183,4.711,6.248,9.57,9.692,14.143,3.763,4.3,7.309,8.844,11.289,12.973,4.172,3.922,8.166,8.081,12.536,11.79,4.439,3.62,8.732,7.458,13.309,10.905,18.208,13.982,37.862,25.79,57.269,37.738,19.627,11.6,39.107,23.354,57.608,36.474,4.663,3.228,9.053,6.8,13.6,10.2,4.473,3.479,8.562,7.4,12.9,11.067,4.2,3.8,8.007,8,12.052,12.007C252.5,774.437,255.944,778.962,259.612,783.355Z"/><path class="cls-3" d="M254.544,750.844a158.456,158.456,0,0,0-23.6-23.638,272.039,272.039,0,0,0-27.419-19.243c-19.009-11.76-39.143-21.394-58.914-31.457-19.928-9.691-39.484-20.1-57.86-32.313a205.534,205.534,0,0,1-26.113-20.232,131.021,131.021,0,0,1-21.707-24.978c5.176,9.868,12.242,18.69,19.98,26.759a205.128,205.128,0,0,0,25.622,21.651c18.2,13.071,38,23.559,57.829,33.641,20,9.705,39.963,19.344,59.185,30.263a276.377,276.377,0,0,1,27.889,17.863A180.694,180.694,0,0,1,254.544,750.844Z"/><path class="cls-3" d="M224.555,847.231c-9.516,4.413-20.286,2.426-29.649-1.018a94.668,94.668,0,0,1-26.329-14.9c-16.014-12.506-29.435-28.218-37.762-46.746-4.469-9.115-8.255-18.71-12.582-28.121-4.337-9.387-8.757-18.742-13.8-27.771q-7.47-13.586-15.649-26.736c-5.622-8.66-11.321-17.26-17.5-25.518,10.521,17.725,20.6,35.648,29.689,54.047,4.457,9.242,8.963,18.452,13.046,27.855,4.142,9.356,7.758,19,12.235,28.44a124.782,124.782,0,0,0,39.987,47.65,96.757,96.757,0,0,0,27.887,14.14A56.692,56.692,0,0,0,209.6,851,27.83,27.83,0,0,0,224.555,847.231Z"/><path class="cls-3" d="M5.369,593.579,3.721,641.641C10.3,707.207,32.74,768.652,47.017,832.6c11.064,49.554,21.29,110.786-.34,158.733-.282.625-1.415.333-1.327-.359,7.991-62.814,4.8-119.871-11.135-181.442C22.568,764.513,8.61,720.473,2.588,674.673l-13.455,392.255a38.64,38.64,0,0,0,13.157,1.4c25.15-1.729,49.413-29.093,59.884-67.539,5.718-21,7.471-44.311,7.381-67.14C69.08,813.373,20.708,710.515,5.369,593.579Z"/><path class="cls-2" d="M46.98,112.82c21.634,47.956,11.406,109.172.34,158.733C32.882,336.22,10.088,398.317,3.8,464.719c-.226,2.387-3.867,2.484-3.8,0,1.666-58.759,19.916-113.66,34.518-170.1C50.446,233.06,53.645,176,45.654,113.179c-.088-.691,1.044-.984,1.326-.359Z"/><path class="cls-2" d="M19.54,169.521c19.5,97.011-24.789,189.116-12.707,285.643.135,1.077-1.594,1.261-1.864.252-11.095-41.457.22-80.9,8.657-121.816C24.6,280.365,27.62,223.458,19.083,169.647c-.048-.3.4-.429.457-.126Z"/></svg>
